<svg version="1.1" id="Capa_1" xmlns="http://www.w3.org/2000/svg" xmlns:xlink="http://www.w3.org/1999/xlink" x="0px" y="0px" width="48px" height="48px" viewBox="0 0 48 48" style="enable-background:new 0 0 592.017 592.017;" xml:space="preserve"><g><g><g><path d="M18.524 30.907h11.479c0.959 0 1.737 -0.778 1.737 -1.737s-0.778 -1.737 -1.737 -1.737H18.524c-0.959 0 -1.737 0.778 -1.737 1.737s0.778 1.737 1.737 1.737"/><path d="M30.003 30.948H18.524c-0.98 0 -1.777 -0.797 -1.777 -1.777s0.797 -1.777 1.777 -1.777h11.479c0.98 0 1.777 0.797 1.777 1.777s-0.797 1.777 -1.777 1.777m-11.479 -3.473c-0.935 0 -1.696 0.761 -1.696 1.696s0.761 1.696 1.696 1.696h11.479c0.935 0 1.696 -0.761 1.696 -1.696s-0.761 -1.696 -1.696 -1.696z"/></g><g><path d="M8.075 29.421a1.731 1.731 0 0 0 1.228 0.509 1.731 1.731 0 0 0 1.228 -0.509l4.597 -4.597a1.732 1.732 0 0 0 0.508 -1.237 1.731 1.731 0 0 0 -0.508 -1.237l-4.597 -4.597c-0.678 -0.678 -1.778 -0.678 -2.456 0s-0.678 1.778 0 2.456l3.378 3.378 -3.378 3.378c-0.678 0.678 -0.678 1.778 0 2.456"/><path d="M9.303 29.97a1.766 1.766 0 0 1 -1.257 -0.521 1.766 1.766 0 0 1 -0.521 -1.257c0 -0.475 0.185 -0.921 0.521 -1.257l3.349 -3.349 -3.349 -3.349c-0.693 -0.693 -0.693 -1.82 0 -2.513 0.336 -0.336 0.782 -0.521 1.257 -0.521s0.921 0.185 1.257 0.521l4.597 4.597a1.764 1.764 0 0 1 0.52 1.266 1.765 1.765 0 0 1 -0.52 1.265l-4.597 4.597a1.765 1.765 0 0 1 -1.257 0.521m0 -12.685a1.686 1.686 0 0 0 -1.199 0.497c-0.661 0.661 -0.661 1.737 0 2.399l3.407 3.407 -3.407 3.407c-0.32 0.32 -0.497 0.746 -0.497 1.199s0.176 0.879 0.497 1.199a1.686 1.686 0 0 0 1.199 0.497 1.685 1.685 0 0 0 1.199 -0.497l4.597 -4.597c0.323 -0.323 0.499 -0.752 0.497 -1.208 0.002 -0.457 -0.174 -0.886 -0.497 -1.208l-4.597 -4.597a1.685 1.685 0 0 0 -1.199 -0.497"/></g><g><path d="M0.041 42.555c0 2.599 2.115 4.714 4.714 4.714h38.491c2.599 0 4.714 -2.115 4.714 -4.714V5.445c0 -2.599 -2.115 -4.714 -4.714 -4.714H4.754C2.155 0.731 0.041 2.846 0.041 5.445zm44.446 0c0 0.685 -0.555 1.241 -1.241 1.241H4.754c-0.685 0 -1.241 -0.555 -1.241 -1.241V14.228h40.972zM3.514 5.445c0 -0.685 0.555 -1.241 1.241 -1.241h38.491c0.685 0 1.241 0.555 1.241 1.241v5.309H3.514z"/><path d="M43.245 47.309H4.754c-2.622 0 -4.754 -2.133 -4.754 -4.754V5.445C0 2.824 2.133 0.691 4.754 0.691h38.491c2.622 0 4.755 2.133 4.755 4.754v37.11c0 2.622 -2.133 4.754 -4.755 4.754M4.754 0.772C2.178 0.772 0.081 2.868 0.081 5.445v37.11c0 2.577 2.096 4.673 4.673 4.673h38.491c2.577 0 4.673 -2.096 4.673 -4.673V5.445c0 -2.577 -2.096 -4.673 -4.673 -4.673H4.754zm38.491 43.064H4.754c-0.706 0 -1.281 -0.575 -1.281 -1.281V14.187h41.053v28.367c0 0.706 -0.575 1.281 -1.281 1.281M3.554 14.268v28.286c0 0.662 0.538 1.2 1.2 1.2h38.491c0.662 0 1.2 -0.538 1.2 -1.2V14.268zm40.972 -3.473H3.473V5.445c0 -0.706 0.575 -1.281 1.281 -1.281h38.491c0.706 0 1.281 0.575 1.281 1.281zm-40.972 -0.081h40.891V5.445c0 -0.662 -0.538 -1.2 -1.2 -1.2H4.754c-0.662 0 -1.2 0.538 -1.2 1.2z"/></g></g></g></svg>