<svg width="48px" height="48px" viewBox="0 0 1.44 1.44" fill="none" xmlns="http://www.w3.org/2000/svg"><path d="M1.14 0.96V0.39c0 -0.066 -0.054 -0.12 -0.12 -0.12h-0.33" stroke="#292D32" stroke-width="0.09" stroke-linecap="round" stroke-linejoin="round"/><path d="m0.84 0.12 -0.18 0.15L0.84 0.42" stroke="#292D32" stroke-width="0.09" stroke-linecap="round" stroke-linejoin="round"/><path d="M1.14 1.32a0.18 0.18 0 1 0 0 -0.36 0.18 0.18 0 0 0 0 0.36" stroke="#292D32" stroke-width="0.09" stroke-linecap="round" stroke-linejoin="round"/><path d="M0.3 0.48v0.57c0 0.066 0.054 0.12 0.12 0.12h0.33" stroke="#292D32" stroke-width="0.09" stroke-linecap="round" stroke-linejoin="round"/><path d="m0.6 1.32 0.18 -0.15 -0.18 -0.15" stroke="#292D32" stroke-width="0.09" stroke-linecap="round" stroke-linejoin="round"/><path d="M0.3 0.48a0.18 0.18 0 1 0 0 -0.36 0.18 0.18 0 0 0 0 0.36" stroke="#292D32" stroke-width="0.09" stroke-linecap="round" stroke-linejoin="round"/></svg>