<svg fill="#000000" height="48px" width="48px" version="1.1" id="Icons" xmlns="http://www.w3.org/2000/svg" xmlns:xlink="http://www.w3.org/1999/xlink" viewBox="0 0 1.92 1.92" xml:space="preserve"><path d="M1.32 0.96c-0.264 0 -0.48 0.216 -0.48 0.48 0 0.096 0.03 0.192 0.084 0.276 0.012 0.018 0.03 0.024 0.048 0.024s0.036 -0.012 0.048 -0.024c0.042 -0.06 0.102 -0.108 0.174 -0.132l0.258 -0.36c0.018 -0.024 0.054 -0.036 0.084 -0.012 0.024 0.018 0.036 0.054 0.012 0.084L1.356 1.56c0.102 0.012 0.198 0.066 0.258 0.15 0.012 0.018 0.03 0.024 0.048 0.024s0.036 -0.012 0.048 -0.024c0.054 -0.078 0.084 -0.174 0.084 -0.276 0.006 -0.258 -0.21 -0.474 -0.474 -0.474"/><g><path d="M0.72 1.44c0 -0.33 0.27 -0.6 0.6 -0.6 0.198 0 0.372 0.096 0.48 0.24V0.42c0 -0.102 -0.078 -0.18 -0.18 -0.18H0.3C0.198 0.24 0.12 0.318 0.12 0.42v1.08c0 0.102 0.078 0.18 0.18 0.18h0.468c-0.03 -0.078 -0.048 -0.156 -0.048 -0.24m0.006 -0.984c0.006 -0.006 0.006 -0.012 0.012 -0.018 0.024 -0.024 0.06 -0.024 0.084 0 0.006 0.006 0.012 0.012 0.012 0.018 0.006 0.006 0.006 0.018 0.006 0.024s0 0.018 -0.006 0.024 -0.006 0.012 -0.012 0.018c-0.012 0.012 -0.024 0.018 -0.042 0.018 -0.006 0 -0.018 0 -0.024 -0.006s-0.012 -0.006 -0.018 -0.012 -0.012 -0.012 -0.012 -0.018c-0.006 -0.006 -0.006 -0.018 -0.006 -0.024s0 -0.018 0.006 -0.024m-0.18 0c0.006 -0.006 0.006 -0.012 0.012 -0.018s0.012 -0.012 0.018 -0.012c0.024 -0.012 0.048 -0.006 0.066 0.012 0.006 0.006 0.012 0.012 0.012 0.018 0.006 0.006 0.006 0.018 0.006 0.024 0 0.018 -0.006 0.03 -0.018 0.042s-0.024 0.018 -0.042 0.018 -0.03 -0.006 -0.042 -0.018S0.54 0.498 0.54 0.48c0 -0.006 0 -0.018 0.006 -0.024m-0.168 -0.018 0.006 -0.006c0.006 0 0.006 -0.006 0.012 -0.006 0.006 -0.006 0.006 -0.006 0.012 -0.006h0.024c0.006 0 0.006 0 0.012 0.006 0.006 0 0.006 0.006 0.012 0.006l0.006 0.006c0.006 0.006 0.012 0.012 0.012 0.018 0.006 0.006 0.006 0.018 0.006 0.024s0 0.018 -0.006 0.024c0 0.006 -0.006 0.012 -0.012 0.018 -0.012 0.012 -0.024 0.018 -0.042 0.018s-0.03 -0.006 -0.042 -0.018S0.36 0.498 0.36 0.48s0.006 -0.03 0.018 -0.042M0.42 0.84h0.3c0.036 0 0.06 0.024 0.06 0.06s-0.024 0.06 -0.06 0.06H0.42c-0.036 0 -0.06 -0.024 -0.06 -0.06s0.024 -0.06 0.06 -0.06m0.12 0.3H0.42c-0.036 0 -0.06 -0.024 -0.06 -0.06s0.024 -0.06 0.06 -0.06h0.12c0.036 0 0.06 0.024 0.06 0.06s-0.024 0.06 -0.06 0.06"/></g></svg>